<svg xmlns="http://www.w3.org/2000/svg" xmlns:xlink="http://www.w3.org/1999/xlink" width="1125px" height="874px" version="1.1"><defs/><g transform="translate(0.5,0.5)"><ellipse cx="92" cy="91" rx="11" ry="11" fill="#000000" stroke="#ff0000" pointer-events="none"/><rect x="22" y="176" width="140" height="94" rx="38" ry="38" fill="#ffffc0" stroke="#ff0000" pointer-events="none"/><g fill="#000000" font-family="Helvetica" text-anchor="middle" font-size="14px"><text x="92" y="211">ผู้ใช้ทำการกรอกข้อมูล</text><text x="92" y="228">รายรับรายจ่ายที่</text><text x="92" y="245">ต้องการ</text></g><ellipse cx="972" cy="663" rx="11" ry="11" fill="#000000" stroke="#ff0000" pointer-events="none"/><ellipse cx="972" cy="663" rx="15" ry="15" fill="transparent" stroke="#ff0000" pointer-events="none"/><rect x="2" y="1" width="1120" height="60" fill="#ffffff" stroke="#000000" pointer-events="none"/><path d="M 522 871 L 522 1" fill="none" stroke="#000000" stroke-miterlimit="10" pointer-events="none"/><path d="M 1 871 L 1 61" fill="none" stroke="#000000" stroke-miterlimit="10" pointer-events="none"/><path d="M 1 868 L 1121 868" fill="none" stroke="#000000" stroke-miterlimit="10" pointer-events="none"/><rect x="315" y="12" width="80" height="40" fill="none" stroke="none" pointer-events="none"/><g fill="#000000" font-family="Helvetica" text-anchor="middle" font-size="14px"><text x="355" y="37">ตัวจัดการรับข้อมูล</text></g><rect x="644" y="11" width="80" height="40" fill="none" stroke="none" pointer-events="none"/><g fill="#000000" font-family="Helvetica" text-anchor="middle" font-size="14px"><text x="684" y="36">ตัวติดต่อฐานข้อมูล</text></g><rect x="52" y="11" width="80" height="40" fill="none" stroke="none" pointer-events="none"/><g fill="#000000" font-family="Helvetica" text-anchor="middle" font-size="14px"><text x="92" y="36">ผู้ใช้</text></g><path d="M 92 101 L 92 170" fill="none" stroke="#000000" stroke-miterlimit="10" pointer-events="none"/><path d="M 92 175 L 89 168 L 92 170 L 96 168 Z" fill="#000000" stroke="#000000" stroke-miterlimit="10" pointer-events="none"/><path d="M 232 871 L 232 1" fill="none" stroke="#000000" stroke-miterlimit="10" pointer-events="none"/><rect x="285" y="123" width="180" height="94" rx="38" ry="38" fill="#ffffc0" stroke="#ff0000" pointer-events="none"/><g fill="#000000" font-family="Helvetica" text-anchor="middle" font-size="14px"><text x="375" y="158">ระบบทำการตรวจสอบข้อมูล</text><text x="375" y="175">ที่ได้รับมาว่าตรงตามรูปแบบ</text><text x="375" y="192">ที่ต้องการหรือไม่</text></g><path d="M 375 264 L 400 294 L 375 324 L 349 294 Z" fill="#ffffff" stroke="#000000" stroke-miterlimit="10" pointer-events="none"/><path d="M 375 217 L 375 241 L 375 241 L 375 258" fill="none" stroke="#000000" stroke-miterlimit="10" pointer-events="none"/><path d="M 375 263 L 371 256 L 375 258 L 378 256 Z" fill="#000000" stroke="#000000" stroke-miterlimit="10" pointer-events="none"/><path d="M 162 223 L 202 223 L 202 170 L 279 170" fill="none" stroke="#000000" stroke-miterlimit="10" pointer-events="none"/><path d="M 284 170 L 277 174 L 279 170 L 277 167 Z" fill="#000000" stroke="#000000" stroke-miterlimit="10" pointer-events="none"/><rect x="952" y="12" width="80" height="40" fill="none" stroke="none" pointer-events="none"/><g fill="#000000" font-family="Helvetica" text-anchor="middle" font-size="14px"><text x="992" y="37">ส่วนแจ้งผู้ใช้</text></g><path d="M 842 871 L 842 1" fill="none" stroke="#000000" stroke-miterlimit="10" pointer-events="none"/><path d="M 1122 871 L 1122 61" fill="none" stroke="#000000" stroke-miterlimit="10" pointer-events="none"/><rect x="892" y="143" width="180" height="94" rx="38" ry="38" fill="#ffffc0" stroke="#ff0000" pointer-events="none"/><g fill="#000000" font-family="Helvetica" text-anchor="middle" font-size="14px"><text x="982" y="187">ทำการแจ้งผู้ใช้ว่าข้อมูลที่กรอก</text><text x="982" y="204">เข้ามาผิดให้ตรวจสอบอีกครั้ง</text></g><path d="M 982 143 L 982 101 L 127 101 L 127 170" fill="none" stroke="#000000" stroke-miterlimit="10" pointer-events="none"/><path d="M 127 175 L 124 168 L 127 170 L 131 168 Z" fill="#000000" stroke="#000000" stroke-miterlimit="10" pointer-events="none"/><path d="M 400 294 L 982 294 L 982 243" fill="none" stroke="#000000" stroke-miterlimit="10" pointer-events="none"/><path d="M 982 238 L 986 245 L 982 243 L 979 245 Z" fill="#000000" stroke="#000000" stroke-miterlimit="10" pointer-events="none"/><rect x="412" y="247" width="80" height="40" fill="none" stroke="none" pointer-events="none"/><g fill="#000000" font-family="Helvetica" text-anchor="middle" font-size="14px"><text x="452" y="272">[ข้อมูลที่ได้รับไม่ถูกต้อง]</text></g><rect x="602" y="371" width="180" height="94" rx="38" ry="38" fill="#ffffc0" stroke="#ff0000" pointer-events="none"/><g fill="#000000" font-family="Helvetica" text-anchor="middle" font-size="14px"><text x="692" y="423">บันทึกข้อมูลลงฐานข้อมูล</text></g><path d="M 375 324 L 375 418 L 596 418" fill="none" stroke="#000000" stroke-miterlimit="10" pointer-events="none"/><path d="M 601 418 L 594 422 L 596 418 L 594 415 Z" fill="#000000" stroke="#000000" stroke-miterlimit="10" pointer-events="none"/><path d="M 692 535 L 717 565 L 692 595 L 666 565 Z" fill="#ffffff" stroke="#000000" stroke-miterlimit="10" pointer-events="none"/><rect x="404" y="378" width="80" height="40" fill="none" stroke="none" pointer-events="none"/><g fill="#000000" font-family="Helvetica" text-anchor="middle" font-size="14px"><text x="444" y="403">[ข้อมูลที่ได้รับถูกต้อง]</text></g><path d="M 692 465 L 692 500 L 692 500 L 692 529" fill="none" stroke="#000000" stroke-miterlimit="10" pointer-events="none"/><path d="M 692 534 L 688 527 L 692 529 L 695 527 Z" fill="#000000" stroke="#000000" stroke-miterlimit="10" pointer-events="none"/><rect x="882" y="518" width="180" height="94" rx="38" ry="38" fill="#ffffc0" stroke="#ff0000" pointer-events="none"/><g fill="#000000" font-family="Helvetica" text-anchor="middle" font-size="14px"><text x="972" y="562">แจ้งผู้ใช้ว่าบันทึกข้อมูล</text><text x="972" y="579">เรียบร้อยแล้ว</text></g><path d="M 717 565 L 876 565" fill="none" stroke="#000000" stroke-miterlimit="10" pointer-events="none"/><path d="M 881 565 L 874 569 L 876 565 L 874 562 Z" fill="#000000" stroke="#000000" stroke-miterlimit="10" pointer-events="none"/><path d="M 972 612 L 972 642" fill="none" stroke="#000000" stroke-miterlimit="10" pointer-events="none"/><path d="M 972 647 L 969 640 L 972 642 L 976 640 Z" fill="#000000" stroke="#000000" stroke-miterlimit="10" pointer-events="none"/><rect x="724" y="528" width="80" height="40" fill="none" stroke="none" pointer-events="none"/><g fill="#000000" font-family="Helvetica" text-anchor="middle" font-size="14px"><text x="764" y="553">[บันทึกข้อมูลสำเร็จ]</text></g><rect x="882" y="711" width="180" height="94" rx="38" ry="38" fill="#ffffc0" stroke="#ff0000" pointer-events="none"/><g fill="#000000" font-family="Helvetica" text-anchor="middle" font-size="14px"><text x="972" y="755">แจ้งผู้ใช้ว่าไม่สามารถ</text><text x="972" y="772">บันทึกข้อมูลได้</text></g><path d="M 692 595 L 692 758 L 876 758" fill="none" stroke="#000000" stroke-miterlimit="10" pointer-events="none"/><path d="M 881 758 L 874 762 L 876 758 L 874 755 Z" fill="#000000" stroke="#000000" stroke-miterlimit="10" pointer-events="none"/><ellipse cx="972" cy="846" rx="11" ry="11" fill="#000000" stroke="#ff0000" pointer-events="none"/><ellipse cx="972" cy="846" rx="15" ry="15" fill="transparent" stroke="#ff0000" pointer-events="none"/><path d="M 972 805 L 972 825" fill="none" stroke="#000000" stroke-miterlimit="10" pointer-events="none"/><path d="M 972 830 L 969 823 L 972 825 L 976 823 Z" fill="#000000" stroke="#000000" stroke-miterlimit="10" pointer-events="none"/><rect x="717" y="718" width="80" height="40" fill="none" stroke="none" pointer-events="none"/><g fill="#000000" font-family="Helvetica" text-anchor="middle" font-size="14px"><text x="757" y="743">[บันทึกข้อมูลไม่สำเร็จ]</text></g></g></svg>