<svg xmlns="http://www.w3.org/2000/svg" xmlns:xlink="http://www.w3.org/1999/xlink" width="1034px" height="1151px" version="1.1"><defs/><g transform="translate(0.5,0.5)"><rect x="1" y="1" width="1030" height="60" fill="#ffffff" stroke="#000000" pointer-events="none"/><ellipse cx="116" cy="111" rx="11" ry="8.5" fill="#000000" stroke="#ff0000" pointer-events="none"/><ellipse cx="926" cy="1113" rx="11" ry="11" fill="#000000" stroke="#ff0000" pointer-events="none"/><ellipse cx="926" cy="1113" rx="15" ry="15" fill="transparent" stroke="#ff0000" pointer-events="none"/><rect x="11" y="202" width="210" height="105" rx="42" ry="42" fill="#ffffc0" stroke="#ff0000" pointer-events="none"/><g fill="#000000" font-family="Helvetica" text-anchor="middle" font-size="14px"><text x="116" y="251">ผู้ใช้ทำการเลือกช่วงเวลา</text><text x="116" y="268">ที่รายรับรายจ่ายที่ต้องการลบนั้นอยู่</text></g><path d="M 326 228 L 351 255 L 326 281 L 301 255 Z" fill="#ffffff" stroke="#000000" stroke-miterlimit="10" pointer-events="none"/><rect x="836" y="98" width="150" height="55" rx="22" ry="22" fill="#ffffc0" stroke="#ff0000" pointer-events="none"/><g fill="#000000" font-family="Helvetica" text-anchor="middle" font-size="14px"><text x="911" y="122">แจ้งให้ผู้ใช้ทราบว่าเลือก</text><text x="911" y="139">ช่วงเวลาไม่ถูกต้อง</text></g><rect x="461" y="216" width="180" height="78" rx="31" ry="31" fill="#ffffc0" stroke="#ff0000" pointer-events="none"/><g fill="#000000" font-family="Helvetica" text-anchor="middle" font-size="14px"><text x="551" y="252">ระบบทำการค้นหารายรับ</text><text x="551" y="269">รายจ่ายในช่วงเวลาที่ต้องการ</text></g><path d="M 221 255 L 299 255" fill="none" stroke="#000000" stroke-miterlimit="10" pointer-events="none"/><path d="M 293 258 L 300 255 L 293 251" fill="none" stroke="#000000" stroke-miterlimit="10" pointer-events="none"/><path d="M 326 228 L 326 198 Q 326 188 336 188 L 901 188 Q 911 188 911 178 L 911 155" fill="none" stroke="#000000" stroke-miterlimit="10" pointer-events="none"/><path d="M 915 161 L 911 154 L 908 161" fill="none" stroke="#000000" stroke-miterlimit="10" pointer-events="none"/><g fill="#000000" font-family="Helvetica" text-anchor="middle" font-size="14px"><rect fill="#ffffff" stroke="none" x="297" y="160" width="130" height="18" stroke-width="0"/><text x="361" y="173">[ใส่ช่วงเวลาไม่ถูกต้อง]</text></g><path d="M 351 255 L 459 255" fill="none" stroke="#000000" stroke-miterlimit="10" pointer-events="none"/><path d="M 453 258 L 460 255 L 453 251" fill="none" stroke="#000000" stroke-miterlimit="10" pointer-events="none"/><path d="M 836 126 L 179 126 Q 169 126 169 136 L 169 200" fill="none" stroke="#000000" stroke-miterlimit="10" pointer-events="none"/><path d="M 166 194 L 169 201 L 173 194" fill="none" stroke="#000000" stroke-miterlimit="10" pointer-events="none"/><path d="M 116 123 L 116 200" fill="none" stroke="#000000" stroke-miterlimit="10" pointer-events="none"/><path d="M 113 194 L 116 201 L 120 194" fill="none" stroke="#000000" stroke-miterlimit="10" pointer-events="none"/><path d="M 534 352 L 559 379 L 534 405 L 509 379 Z" fill="#ffffff" stroke="#000000" stroke-miterlimit="10" pointer-events="none"/><rect x="862" y="324" width="120" height="109" rx="44" ry="44" fill="#ffffc0" stroke="#ff0000" pointer-events="none"/><g fill="#000000" font-family="Helvetica" text-anchor="middle" font-size="14px"><text x="922" y="350">แจ้งผู้ใช้ว่าไม่</text><text x="922" y="367">สามารถ</text><text x="922" y="384">ค้นหาได้</text><text x="922" y="401">เนื่องจาก</text><text x="922" y="418">ปัญหาอะไร</text></g><rect x="826" y="551" width="160" height="77" rx="31" ry="31" fill="#ffffc0" stroke="#ff0000" pointer-events="none"/><g fill="#000000" font-family="Helvetica" text-anchor="middle" font-size="14px"><text x="906" y="586">ทำการแสดงผลให้ผู้ใช้เห็น</text><text x="906" y="603">รายรับรายจ่ายที่ค้นหามาได้</text></g><rect x="19" y="551" width="180" height="75" rx="30" ry="30" fill="#ffffc0" stroke="#ff0000" pointer-events="none"/><g fill="#000000" font-family="Helvetica" text-anchor="middle" font-size="14px"><text x="109" y="585">ผู้ใช้เลือกรายรับรายจ่าย</text><text x="109" y="602">ที่ต้องการลบ</text></g><rect x="470" y="621" width="150" height="60" rx="24" ry="24" fill="#ffffc0" stroke="#ff0000" pointer-events="none"/><g fill="#000000" font-family="Helvetica" text-anchor="middle" font-size="14px"><text x="545" y="648">ระบบทำการลบ</text><text x="545" y="665">รายรับรายจ่ายที่ผู้ใช้เลือก</text></g><path d="M 544 757 L 569 784 L 544 810 L 519 784 Z" fill="#ffffff" stroke="#000000" stroke-miterlimit="10" pointer-events="none"/><rect x="855" y="735" width="134" height="103" rx="41" ry="41" fill="#ffffc0" stroke="#ff0000" pointer-events="none"/><g fill="#000000" font-family="Helvetica" text-anchor="middle" font-size="14px"><text x="922" y="775">แจ้งผู้ใช้ว่าไม่สามารถ</text><text x="922" y="792">ลบได้เนื่อง</text><text x="922" y="809">จากปัญหาอะไร</text></g><rect x="831" y="966" width="190" height="55" rx="22" ry="22" fill="#ffffc0" stroke="#ff0000" pointer-events="none"/><g fill="#000000" font-family="Helvetica" text-anchor="middle" font-size="14px"><text x="926" y="990">แจ้งให้ผู้ใช้ทราบว่าลบ</text><text x="926" y="1007">รายรับรายจ่ายเรียบร้อยแล้ว</text></g><path d="M 534 298 L 534 350" fill="none" stroke="#000000" stroke-miterlimit="10" pointer-events="none"/><path d="M 531 344 L 534 351 L 538 344" fill="none" stroke="#000000" stroke-miterlimit="10" pointer-events="none"/><path d="M 559 379 L 860 379" fill="none" stroke="#000000" stroke-miterlimit="10" pointer-events="none"/><path d="M 854 382 L 861 379 L 854 375" fill="none" stroke="#000000" stroke-miterlimit="10" pointer-events="none"/><path d="M 534 405 L 534 468 Q 534 478 544 478 L 856 478 Q 866 478 866 488 L 866 549" fill="none" stroke="#000000" stroke-miterlimit="10" pointer-events="none"/><path d="M 863 543 L 866 550 L 870 543" fill="none" stroke="#000000" stroke-miterlimit="10" pointer-events="none"/><g fill="#000000" font-family="Helvetica" text-anchor="middle" font-size="14px"><rect fill="#ffffff" stroke="none" x="662" y="470" width="77" height="18" stroke-width="0"/><text x="700" y="483">[ค้นหาสำเร็จ]</text></g><path d="M 826 590 L 201 589" fill="none" stroke="#000000" stroke-miterlimit="10" pointer-events="none"/><path d="M 207 585 L 200 589 L 207 592" fill="none" stroke="#000000" stroke-miterlimit="10" pointer-events="none"/><path d="M 108 628 L 108 641 Q 108 651 118 651 L 468 651" fill="none" stroke="#000000" stroke-miterlimit="10" pointer-events="none"/><path d="M 462 655 L 469 651 L 462 648" fill="none" stroke="#000000" stroke-miterlimit="10" pointer-events="none"/><path d="M 545 681 L 544 755" fill="none" stroke="#000000" stroke-miterlimit="10" pointer-events="none"/><path d="M 541 749 L 544 756 L 548 749" fill="none" stroke="#000000" stroke-miterlimit="10" pointer-events="none"/><path d="M 569 784 L 853 786" fill="none" stroke="#000000" stroke-miterlimit="10" pointer-events="none"/><path d="M 847 790 L 854 786 L 847 783" fill="none" stroke="#000000" stroke-miterlimit="10" pointer-events="none"/><path d="M 544 810 L 544 984 Q 544 994 554 994 L 801 994 Q 811 994 820 994 L 829 994" fill="none" stroke="#000000" stroke-miterlimit="10" pointer-events="none"/><path d="M 823 997 L 830 994 L 823 990" fill="none" stroke="#000000" stroke-miterlimit="10" pointer-events="none"/><g fill="#000000" font-family="Helvetica" text-anchor="middle" font-size="14px"><rect fill="#ffffff" stroke="none" x="565" y="986" width="62" height="18" stroke-width="0"/><text x="596" y="999">[ลบสำเร็จ]</text></g><path d="M 926 1021 L 926 1096" fill="none" stroke="#000000" stroke-miterlimit="10" pointer-events="none"/><path d="M 923 1090 L 926 1097 L 930 1090" fill="none" stroke="#000000" stroke-miterlimit="10" pointer-events="none"/><ellipse cx="921" cy="896" rx="11" ry="11" fill="#000000" stroke="#ff0000" pointer-events="none"/><ellipse cx="921" cy="896" rx="15" ry="15" fill="transparent" stroke="#ff0000" pointer-events="none"/><ellipse cx="922" cy="504" rx="11" ry="11" fill="#000000" stroke="#ff0000" pointer-events="none"/><ellipse cx="922" cy="504" rx="15" ry="15" fill="transparent" stroke="#ff0000" pointer-events="none"/><path d="M 922 838 L 921 879" fill="none" stroke="#000000" stroke-miterlimit="10" pointer-events="none"/><path d="M 918 873 L 921 880 L 925 873" fill="none" stroke="#000000" stroke-miterlimit="10" pointer-events="none"/><path d="M 922 433 L 922 489" fill="none" stroke="#000000" stroke-miterlimit="10" pointer-events="none"/><rect x="324" y="261" width="130" height="50" fill="none" stroke="none" pointer-events="none"/><g fill="#000000" font-family="Helvetica" text-anchor="middle" font-size="14px"><text x="389" y="291">[ ใส่ช่วงเวลาถูกต้อง]</text></g><rect x="569" y="349" width="100" height="40" fill="none" stroke="none" pointer-events="none"/><g fill="#000000" font-family="Helvetica" text-anchor="middle" font-size="14px"><text x="619" y="374">[ค้าหาไม่สำเร็จ]</text></g><rect x="567" y="751" width="110" height="40" fill="none" stroke="none" pointer-events="none"/><g fill="#000000" font-family="Helvetica" text-anchor="middle" font-size="14px"><text x="622" y="776">[ลบไม่สำเร็จ]</text></g><rect x="91" y="8" width="80" height="40" fill="none" stroke="none" pointer-events="none"/><g fill="#000000" font-family="Helvetica" text-anchor="middle" font-size="18px"><text x="131" y="35">ผู้ใช้</text></g><rect x="270" y="8" width="130" height="40" fill="none" stroke="none" pointer-events="none"/><g fill="#000000" font-family="Helvetica" text-anchor="middle" font-size="18px"><text x="335" y="35">ตัวจัดการการรับข้อมูล</text></g><rect x="536" y="1" width="161" height="70" fill="none" stroke="none" pointer-events="none"/><g fill="#000000" font-family="Helvetica" text-anchor="middle" font-size="18px"><text x="617" y="43">ตัวติดต่อฐานข้อมูล</text></g><path d="M 231 1148 L 231 1" fill="none" stroke="#000000" stroke-miterlimit="10" pointer-events="none"/><path d="M 1 1148 L 1 60" fill="none" stroke="#000000" stroke-miterlimit="10" pointer-events="none"/><path d="M 443 1148 L 443 2" fill="none" stroke="#000000" stroke-miterlimit="10" pointer-events="none"/><path d="M 1 1148 L 1031 1148" fill="none" stroke="#000000" stroke-miterlimit="10" pointer-events="none"/><path d="M 1031 1148 L 1031 58" fill="none" stroke="#000000" stroke-miterlimit="10" pointer-events="none"/><path d="M 821 1147 L 821 1" fill="none" stroke="#000000" stroke-miterlimit="10" pointer-events="none"/><rect x="841" y="1" width="161" height="70" fill="none" stroke="none" pointer-events="none"/><g fill="#000000" font-family="Helvetica" text-anchor="middle" font-size="18px"><text x="922" y="43">ส่วนแจ้งผู้ใช้</text></g></g></svg>